<!DOCTYPE svg PUBLIC "-//W3C//DTD SVG 1.1//EN" "http://www.w3.org/Graphics/SVG/1.1/DTD/svg11.dtd">
<!-- Uploaded to: SVG Repo, www.svgrepo.com, Transformed by: SVG Repo Mixer Tools -->
<svg width="800px" height="800px" viewBox="0 0 18 18" xmlns="http://www.w3.org/2000/svg" fill="#000000">
<g id="SVGRepo_bgCarrier" stroke-width="0"/>
<g id="SVGRepo_tracerCarrier" stroke-linecap="round" stroke-linejoin="round"/>
<g id="SVGRepo_iconCarrier"> <path fill="#000000" d="M17.707 16.29a1 1 0 0 1-1.41 1.42l-7.292-7.29L1.7 17.71a1 1 0 0 1-1.41-1.42L7.585 9 .293 1.712a1.008 1.008 0 0 1 0-1.42 1 1 0 0 1 1.41 0l7.3 7.3 7.292-7.3a1 1 0 0 1 1.41 0 1.008 1.008 0 0 1 0 1.42L10.415 9z"/> </g>
</svg>